<?xml version="1.0" encoding="UTF-8" standalone="no"?>
<svg
   xmlns:dc="http://purl.org/dc/elements/1.1/"
   xmlns:cc="http://creativecommons.org/ns#"
   xmlns:rdf="http://www.w3.org/1999/02/22-rdf-syntax-ns#"
   xmlns:svg="http://www.w3.org/2000/svg"
   xmlns="http://www.w3.org/2000/svg"
   xmlns:sodipodi="http://sodipodi.sourceforge.net/DTD/sodipodi-0.dtd"
   xmlns:inkscape="http://www.inkscape.org/namespaces/inkscape"
   viewBox="0 0 109 24"
   id="svg2"
   version="1.1"
   inkscape:version="0.91 r13725"
   sodipodi:docname="logo_kaldi.svg">
  <metadata
     id="metadata29">
    <rdf:RDF>
      <cc:Work
         rdf:about="">
        <dc:format>image/svg+xml</dc:format>
        <dc:type
           rdf:resource="http://purl.org/dc/dcmitype/StillImage" />
      </cc:Work>
    </rdf:RDF>
  </metadata>
  <sodipodi:namedview
     pagecolor="#ffffff"
     bordercolor="#666666"
     borderopacity="1"
     objecttolerance="10"
     gridtolerance="10"
     guidetolerance="10"
     inkscape:pageopacity="0"
     inkscape:pageshadow="2"
     inkscape:window-width="1366"
     inkscape:window-height="705"
     id="namedview27"
     showgrid="false"
     inkscape:zoom="5.8191657"
     inkscape:cx="60.426557"
     inkscape:cy="12"
     inkscape:window-x="-8"
     inkscape:window-y="-8"
     inkscape:window-maximized="1"
     inkscape:current-layer="svg2" />
  <title
     id="title4">Logo</title>
  <defs
     id="defs20">
    <path
       id="b"
       d="M22.735 23.171c.283.323.053.829-.376.829h-5.907c-.285 0-.556-.121-.745-.333l-9.414-10.526v10.36c0 .276-.224.5-.5.5h-5.293c-.276 0-.5-.224-.5-.5v-23c0-.276.224-.5.5-.5h5.293c.276 0 .5.224.5.5v9.815l9.141-9.99c.19-.207.457-.325.738-.325h5.762c.437 0 .664.521.366.841l-9.851 10.563 10.287 11.767z" />
    <path
       id="c"
       d="M45.991 24c-.199 0-.38-.118-.459-.301l-2.024-4.669h-10.67l-2.024 4.669c-.079.183-.259.301-.459.301h-5.212c-.366 0-.608-.381-.453-.712l10.782-23c.082-.176.259-.288.453-.288h4.358c.194 0 .37.112.453.287l10.815 23c.156.332-.086.713-.452.713h-5.108zm-11.135-9.668h6.635l-3.317-7.694-3.317 7.694z" />
    <path
       id="d"
       d="M55.525 24c-.276 0-.5-.224-.5-.5v-23c0-.276.224-.5.5-.5h5.293c.276 0 .5.224.5.5v18.428h9.759c.276 0 .5.224.5.5v4.072c0 .276-.224.5-.5.5h-15.552z" />
    <path
       id="e"
       d="M75.279.5c0-.276.224-.5.5-.5h9.315c2.667 0 4.959.477 6.874 1.43 1.938.953 3.42 2.338 4.446 4.153 1.026 1.793 1.539 3.926 1.539 6.4 0 2.496-.513 4.652-1.539 6.468-1.003 1.793-2.474 3.166-4.412 4.119-1.915.953-4.218 1.43-6.908 1.43h-9.315c-.276 0-.5-.224-.5-.5v-23zm9.37 18.462c2.371 0 4.138-.579 5.301-1.736 1.163-1.157 1.744-2.905 1.744-5.242 0-2.338-.581-4.074-1.744-5.209-1.163-1.157-2.93-1.736-5.301-1.736h-3.078v13.923h3.078z" />
    <path
       id="f"
       d="M102.913 24c-.276 0-.5-.224-.5-.5v-23c0-.276.224-.5.5-.5h5.293c.276 0 .5.224.5.5v23c0 .276-.224.5-.5.5h-5.293z" />
  </defs>
  <text
     xml:space="preserve"
     style="font-style:normal;font-weight:normal;font-size:27.5px;line-height:125%;font-family:Sans;letter-spacing:0px;word-spacing:0px;fill:#000000;fill-opacity:1;stroke:none;stroke-width:1px;stroke-linecap:butt;stroke-linejoin:miter;stroke-opacity:1"
     x="24.230278"
     y="24"
     id="text4157"
     sodipodi:linespacing="125%"><tspan
       sodipodi:role="line"
       id="tspan4159"
       x="24.230278"
       y="24" /></text>
  <g
     transform="matrix(1.0651575,0,0,0.90940912,7.4897341e-4,0.68134907)"
     style="font-style:normal;font-variant:normal;font-weight:normal;font-stretch:normal;font-size:36.37033463px;line-height:125%;font-family:Haettenschweiler;-inkscape-font-specification:Haettenschweiler;letter-spacing:0px;word-spacing:0px;fill:#ff0000;fill-opacity:1;stroke:none;stroke-width:1px;stroke-linecap:butt;stroke-linejoin:miter;stroke-opacity:1"
     id="text4165">
    <path
       d="m 0.22213978,15.27547 5.09681932,0 0,5.842695 q 0,0.870189 1.0477782,0.870189 1.0122603,0 1.0122603,-0.870189 l 0,-3.019022 q 0,-1.385198 -1.846931,-3.249888 Q 1.9625171,11.386259 1.0923284,10.196409 0.22213978,9.0065597 0.22213978,7.5858435 l 0,-2.8591914 q 0,-4.95474772 6.46425872,-4.95474772 5.7894185,0 5.7894185,4.51077392 l 0,4.4042202 -5.0968194,0 0,-4.6883634 q 0,-0.763635 -0.8346707,-0.763635 -0.9767424,0 -0.9767424,1.4739931 l 0.1065537,1.6515825 q 0,1.4207162 1.8824489,3.3031652 3.4985139,3.3564421 4.4397379,4.6883631 0.958984,1.331922 0.958984,3.019022 l 0,3.249889 q 0,5.07906 -6.482018,5.07906 -6.25115122,0 -6.25115122,-4.617328 l 0,-5.807177 z"
       id="path4170"
       inkscape:connector-curvature="0"
       style="fill:#ff0000" />
    <path
       d="m 25.830549,3.3236949 -3.125576,0 0,22.1454141 -5.59407,0 0,-22.1454141 -3.125575,0 0,-3.32092414 11.845221,0 0,3.32092414 z"
       id="path4172"
       inkscape:connector-curvature="0"
       style="fill:#ff0000" />
    <path
       d="m 49.059258,0.00277076 -3.267647,25.46633824 -6.624089,0 -2.006762,-14.047332 -1.882449,14.047332 -5.718383,0 -3.161093,-25.46633824 5.025783,0 1.420716,11.75642624 1.917967,-11.75642624 6.304428,0 1.52727,11.75642624 1.882449,-11.75642624 4.58181,0 z"
       id="path4174"
       inkscape:connector-curvature="0"
       style="fill:#ff0000" />
    <path
       d="m 49.592027,21.402308 0,-12.3424715 q 0,-4.3509433 6.020285,-4.3509433 2.326423,0 4.084559,1.0122603 1.775895,1.0122602 1.775895,3.1610935 l 0,12.697651 q 0,4.173354 -5.860454,4.173354 -6.020285,0 -6.020285,-4.350944 z m 6.819438,0.142072 0,-12.6266151 q 0,-1.0122603 -0.870189,-1.0122603 -0.887947,0 -0.887947,1.0122603 l 0,12.6266151 q 0,1.047778 0.887947,1.047778 0.870189,0 0.870189,-1.047778 z"
       id="path4176"
       inkscape:connector-curvature="0"
       style="fill:#ff0000" />
    <path
       d="m 74.472319,13.393021 -5.061301,0 0,-4.4752561 q 0,-0.9412245 -0.870189,-0.9412245 -0.870188,0 -0.870188,0.9057066 l 0,16.586862 -5.061302,0 0,-20.6181442 5.061302,0 0,0.6925991 q 1.01226,-0.8346707 3.125575,-0.8346707 1.509511,0 2.592807,0.8169118 1.083296,0.7991528 1.083296,2.1133153 l 0,5.7539007 z"
       id="path4178"
       inkscape:connector-curvature="0"
       style="fill:#ff0000" />
    <path
       d="m 89.549669,25.469109 -5.949249,0 -3.107817,-7.45876 0,7.45876 -5.043542,0 0,-25.46633824 5.043542,0 0,11.41900624 2.592807,-6.5708122 5.238891,0 -3.676103,9.0215482 4.901471,11.596596 z"
       id="path4180"
       inkscape:connector-curvature="0"
       style="fill:#ff0000" />
    <path
       d="m 90.313303,17.175678 5.043542,0 0,4.368702 q 0,1.047778 0.85243,1.047778 0.85243,0 0.85243,-2.006761 0,-2.610566 -1.047779,-3.374201 -3.960246,-2.077798 -4.777158,-2.89471 -0.816912,-0.83467 -0.816912,-2.486253 l 0,-2.7703965 q 0,-4.3509433 5.895973,-4.3509433 5.736141,0 5.736141,4.1733538 l 0,4.0668 -4.936989,0 0.106554,-2.468494 q 0,-2.5750484 -0.941224,-2.5750484 -0.941225,0 -0.941225,1.6160647 0,1.6693417 0.408456,2.5217717 0.426215,0.852429 4.652848,2.930227 1.75813,1.260885 1.75813,3.338683 l 0,3.090057 q 0,4.350944 -5.984763,4.350944 -5.860454,0 -5.860454,-4.173354 l 0,-4.40422 z"
       id="path4182"
       inkscape:connector-curvature="0"
       style="fill:#ff0000" />
  </g>
</svg>
